<svg width="64" height="91" viewBox="0 0 64 91" fill="none" xmlns="http://www.w3.org/2000/svg">
<path d="M31.2367 32.806C21.6057 32.806 13.7707 43.571 13.7707 56.803C13.7707 70.035 21.6057 80.8 31.2367 80.8C40.8677 80.8 48.7037 70.035 48.7037 56.803C48.7037 43.571 40.8687 32.806 31.2367 32.806ZM31.2367 78.37C22.9457 78.37 16.2007 68.695 16.2007 56.803C16.2007 44.911 22.9467 35.236 31.2367 35.236C39.5267 35.236 46.2727 44.911 46.2727 56.803C46.2727 68.695 39.5277 78.37 31.2367 78.37Z" fill="#868686"/>
<path d="M55.8727 31.676C55.7957 31.594 48.1977 23.324 46.7607 15.229C45.1177 5.978 39.0637 0 31.3377 0C23.3887 0 17.4797 5.545 15.9147 14.472C14.8767 20.399 11.6637 26.227 6.09266 32.288C-1.24534 40.272 -1.79434 63.113 3.58066 70.385C3.87766 70.788 4.39066 70.966 4.87566 70.836C5.35866 70.705 5.71266 70.29 5.76566 69.792C5.77266 69.727 6.11366 66.635 6.89066 62.78C7.42966 67.592 9.53566 73.437 15.3887 78.868C15.4887 78.958 16.4337 79.791 18.0447 80.808L15.5557 82.221C14.7027 82.706 14.1287 83.543 13.9827 84.518C13.8377 85.474 14.1327 86.422 14.7887 87.118C17.2437 89.727 20.2307 90.404 22.6707 90.404C23.7907 90.404 24.7957 90.261 25.5817 90.097C26.4417 89.917 27.1957 89.384 27.6497 88.636C28.1017 87.893 28.2267 86.985 27.9917 86.147L27.5367 84.512C28.8127 84.736 30.1557 84.879 31.5747 84.879C32.7657 84.879 33.9467 84.768 35.1197 84.582L34.6837 86.147C34.4497 86.986 34.5747 87.894 35.0267 88.637C35.4807 89.384 36.2347 89.916 37.0937 90.096C37.8797 90.26 38.8847 90.403 40.0047 90.403C42.4457 90.403 45.4337 89.726 47.8887 87.118C48.5437 86.421 48.8377 85.473 48.6927 84.516C48.5467 83.542 47.9727 82.705 47.1197 82.22L44.7057 80.849C45.5927 80.287 46.4737 79.689 47.3427 79.01C47.4867 78.895 50.8707 76.127 53.3527 71.097C54.5547 68.66 55.6547 65.431 55.8667 61.545C56.5467 64.21 57.0727 67.246 57.2127 70.523C57.2367 71.078 57.6337 71.547 58.1787 71.66C58.7247 71.774 59.2747 71.502 59.5187 71.003C59.6197 70.793 69.7117 49.566 55.8727 31.676ZM25.6507 86.801C25.7247 87.066 25.6327 87.274 25.5727 87.375C25.4647 87.554 25.2907 87.675 25.0827 87.719C22.6457 88.232 19.1877 88.249 16.5577 85.453C16.3647 85.247 16.3667 85.006 16.3857 84.88C16.4197 84.648 16.5557 84.449 16.7567 84.335L20.5257 82.195C21.7757 82.815 23.2207 83.412 24.8397 83.888L25.6507 86.801ZM45.9157 84.335C46.1177 84.449 46.2527 84.648 46.2867 84.88C46.3057 85.006 46.3097 85.247 46.1147 85.453C43.4827 88.25 40.0257 88.229 37.5897 87.718C37.3817 87.675 37.2087 87.553 37.1007 87.375C37.0387 87.275 36.9477 87.066 37.0207 86.8L37.7997 84.003C39.3007 83.578 40.7807 82.983 42.2417 82.248L45.9157 84.335ZM59.0857 65.058C57.5917 55.874 53.7757 49.591 53.5857 49.281C53.2527 48.742 52.5667 48.547 51.9997 48.835C51.4357 49.122 51.1867 49.794 51.4277 50.379C58.1717 66.814 46.3197 76.709 45.8297 77.108C41.2927 80.652 36.4957 82.449 31.5727 82.449C23.1367 82.449 17.0727 77.113 17.0277 77.073C3.83066 64.825 11.0877 50.577 11.4037 49.977C11.7017 49.41 11.5077 48.707 10.9597 48.373C10.7627 48.253 10.5447 48.196 10.3287 48.196C9.94466 48.196 9.56766 48.378 9.33266 48.714C6.33866 52.99 4.67166 60.865 3.89666 65.614C0.97666 56.994 2.16066 40.154 7.88066 33.932C13.7757 27.518 17.1857 21.29 18.3087 14.892C19.6767 7.089 24.5467 2.43 31.3377 2.43C39.2227 2.43 43.2857 9.554 44.3687 15.654C45.9317 24.461 53.7577 32.971 54.0207 33.246C62.9997 44.859 61.0807 58.091 59.0857 65.058Z" fill="#868686"/>
<path d="M29.3657 24.57C29.5857 24.899 29.9517 25.101 30.3467 25.11C30.3557 25.111 30.3667 25.111 30.3767 25.111C30.7607 25.111 31.1247 24.929 31.3537 24.619L35.0997 19.557C35.3117 19.27 35.3867 18.905 35.3057 18.558C35.2247 18.211 34.9947 17.917 34.6777 17.754L31.1337 15.93C30.7977 15.758 30.4017 15.751 30.0597 15.912L26.4147 17.633C26.0957 17.784 25.8567 18.066 25.7617 18.407C25.6677 18.748 25.7257 19.112 25.9217 19.406L29.3657 24.57ZM30.5557 18.365L32.2957 19.26L30.4297 21.783L28.7257 19.23L30.5557 18.365Z" fill="#868686"/>
</svg>
